<?xml version="1.0" encoding="utf-8"?>
<svg version="1.1" id="Layer_1" xmlns="http://www.w3.org/2000/svg" xmlns:xlink="http://www.w3.org/1999/xlink" x="0px"
	y="0px" viewBox="-24.343 -91.966 83.736 73.249" style="scale: 1.5;"
	xml:space="preserve" >
	<g>
		<g>
			<defs>
				<path id="SVGID_1_" d="M9.555-39.782c-14.34,0.273-25.201,2.491-24.115,4.939c1.037,2.46,13.676,4.219,27.977,3.947
				c14.557-0.279,25.452-2.493,24.318-4.948C36.694-38.299,24.041-40.061,9.555-39.782z" />
			</defs>
			<clipPath id="SVGID_00000024002345224627289970000010769729236819331712_">
				<use xlink:href="#SVGID_1_" style="overflow:visible;" />
			</clipPath>
		</g>
	</g>
	<g>

		<linearGradient id="SVGID_00000142157680310579672390000014093451740992113310_" gradientUnits="userSpaceOnUse"
			x1="-1.2763" y1="-51.5479" x2="31.6324" y2="-51.5479">
			<stop offset="1" style="stop-color:#0A1128" />
		</linearGradient>
		<path style="fill:url(#SVGID_00000142157680310579672390000014093451740992113310_);" d="M23.99-66.661
		c-0.163-0.094-0.317-0.172-0.479-0.249h0.007C23.672-66.833,23.835-66.755,23.99-66.661L23.99-66.661z M10.777-63.879
		c-0.566,0.764-1.029,1.613-1.389,2.549c-0.515,1.314-0.764,2.713-0.764,4.207c0,1.494,0.249,2.892,0.764,4.188
		c0.506,1.306,1.218,2.448,2.128,3.417c0.908,0.98,1.999,1.751,3.25,2.318c1.262,0.566,2.634,0.849,4.126,0.849
		c1.201,0,2.352-0.196,3.441-0.565c1.098-0.378,2.084-0.893,2.977-1.571c0.326-0.196,0.601-0.282,0.824-0.239
		c0.214,0.034,0.436,0.196,0.65,0.488l4.677,6.73c0.197,0.412,0.223,0.747,0.077,1.021c-0.146,0.274-0.368,0.506-0.678,0.687
		c-1.716,1.15-3.553,2.043-5.534,2.67c-1.973,0.626-4.058,0.944-6.246,0.944c-1.929,0-3.774-0.241-5.55-0.738
		c-1.776-0.489-3.44-1.193-4.993-2.104c-1.553-0.909-2.96-2-4.23-3.27c-1.27-1.262-2.36-2.671-3.278-4.208
		c-0.909-1.544-1.621-3.21-2.11-4.986c-0.069-0.257-0.138-0.524-0.198-0.781C0.997-57.93,5.218-61.579,10.777-63.879L10.777-63.879z
		" />
	</g>
	<linearGradient id="SVGID_00000000197028881488182910000014714847024270390178_" gradientUnits="userSpaceOnUse"
		x1="-6.4555" y1="-61.3549" x2="31.8158" y2="-61.3549">
		<stop offset="0" style="stop-color:#FFCD05" />
	</linearGradient>
	<path
		style="fill-rule:evenodd;clip-rule:evenodd;fill:url(#SVGID_00000000197028881488182910000014714847024270390178_);"
		d="
	M-6.33-43.982c-0.729-10.712,1.682-21.228,7.953-27.83c5.851-6.155,15.563-8.447,23.618-5.88c2.06,0.653,3.983,1.58,5.766,2.782
	c0.326,0.189,0.558,0.429,0.712,0.712c0.155,0.284,0.121,0.635-0.086,1.065l-4.872,7.022c-0.224,0.3-0.455,0.472-0.679,0.506
	c-0.232,0.043-0.506-0.051-0.858-0.257C11.052-73.88-3.644-59.364-6.227-44.539C-6.269-44.341-6.303-44.153-6.33-43.982
	L-6.33-43.982z" />
</svg>